<svg width="63" height="22" viewBox="0 0 63 22" fill="none" xmlns="http://www.w3.org/2000/svg">
<path d="M1.05161 21.116H0.500609C0.577943 20.246 1.09028 17.694 2.03761 13.46C2.98494 9.20667 3.57461 6.02633 3.80661 3.919C3.80661 3.60967 3.70028 3.24233 3.48761 2.817C3.29428 2.37233 3.09128 2.01467 2.87861 1.744L2.58861 1.338L2.67561 0.902999C3.75828 0.574332 5.62394 0.409999 8.27261 0.409999C8.52394 0.873999 8.64961 1.541 8.64961 2.411C8.64961 3.26167 8.16628 5.67833 7.19961 9.661H7.34461C9.06528 9.661 10.2929 9.01333 11.0276 7.718C11.7816 6.40333 12.3423 4.19933 12.7096 1.106C14.0823 0.641999 15.5226 0.409999 17.0306 0.409999C17.0693 0.545333 17.0789 0.873999 17.0596 1.396C17.0596 1.918 16.9629 2.59467 16.7696 3.426C16.5763 4.238 16.2863 5.09833 15.8996 6.007C15.5323 6.91567 14.9813 7.776 14.2466 8.588C13.5313 9.38067 12.6999 10.0187 11.7526 10.502C12.8739 14.33 13.8406 16.824 14.6526 17.984C15.0006 18.4673 15.2713 18.709 15.4646 18.709C15.8126 18.709 16.3539 18.535 17.0886 18.187L17.4366 18.013L18.1036 19.086C17.3883 19.7433 16.5569 20.2847 15.6096 20.71C14.6816 21.1353 13.8019 21.348 12.9706 21.348C12.1393 21.348 11.4819 21.0193 10.9986 20.362C10.5346 19.7047 10.1383 18.8927 9.80961 17.926C9.50028 16.94 9.17161 15.78 8.82361 14.446C8.47561 13.112 8.24361 12.1067 8.12761 11.43C7.95361 11.4493 7.49928 11.459 6.76461 11.459C5.62394 16.2923 5.05361 19.318 5.05361 20.536C4.29961 20.9227 2.96561 21.116 1.05161 21.116ZM27.2028 21.348C26.1588 21.348 24.8345 21.1547 23.2298 20.768C22.2245 21.0387 21.2868 21.174 20.4168 21.174C19.5468 21.174 19.0441 21.145 18.9088 21.087C19.0441 19.927 19.6145 17.0753 20.6198 12.532C21.6445 7.96933 22.1568 5.108 22.1568 3.948C22.1568 3.716 22.0311 3.40667 21.7798 3.02C21.5285 2.63333 21.2771 2.30467 21.0258 2.034L20.6488 1.628L20.7358 1.193C23.2685 0.670999 25.9945 0.409999 28.9138 0.409999C30.5185 0.409999 31.8331 0.796666 32.8578 1.57C33.9018 2.324 34.4238 3.38733 34.4238 4.76C34.4238 7.40867 32.8095 9.24533 29.5808 10.27C30.8761 10.4247 31.9588 10.9177 32.8288 11.749C33.7181 12.561 34.1628 13.7113 34.1628 15.2C34.1628 17.0173 33.5055 18.4963 32.1908 19.637C30.8761 20.7777 29.2135 21.348 27.2028 21.348ZM26.6808 11.053C26.1395 11.053 25.6561 11.1013 25.2308 11.198C24.3995 14.8713 23.8678 17.433 23.6358 18.883C24.1191 19.2117 24.8731 19.376 25.8978 19.376C26.9418 19.376 27.8311 18.97 28.5658 18.158C29.3005 17.3267 29.6678 16.1377 29.6678 14.591C29.6678 12.2323 28.6721 11.053 26.6808 11.053ZM28.3048 2.208C27.5701 2.208 27.1351 2.27567 26.9998 2.411C26.7291 4.151 26.2845 6.43233 25.6658 9.255C26.4391 9.255 26.9805 9.20667 27.2898 9.11C27.5991 9.01333 27.8698 8.88767 28.1018 8.733C28.3531 8.57833 28.6335 8.33667 28.9428 8.008C29.6195 7.29267 29.9578 6.152 29.9578 4.586C29.9578 3.00067 29.4068 2.208 28.3048 2.208ZM40.8276 18.042C40.8276 18.4673 40.9339 18.68 41.1466 18.68C41.2626 18.68 41.8233 18.4287 42.8286 17.926L43.3796 18.999C41.6396 20.565 40.1026 21.348 38.7686 21.348C37.9373 21.348 37.2993 21.0677 36.8546 20.507C36.4293 19.9463 36.2166 19.2503 36.2166 18.419C36.2166 17.5877 36.6806 15.316 37.6086 11.604C38.5559 7.87267 39.0779 5.311 39.1746 3.919C39.1746 3.60967 39.0683 3.24233 38.8556 2.817C38.6623 2.37233 38.4593 2.01467 38.2466 1.744L37.9566 1.338L38.0436 0.902999C39.1456 0.574332 40.9629 0.409999 43.4956 0.409999C43.7276 0.854666 43.8436 1.50233 43.8436 2.353C43.8436 3.18433 43.3409 5.61067 42.3356 9.632C41.3303 13.6533 40.8276 16.4567 40.8276 18.042ZM53.1003 21.348C51.9789 21.348 50.8189 21.1643 49.6203 20.797C48.6149 21.0483 47.7353 21.174 46.9813 21.174C46.2466 21.174 45.7439 21.1547 45.4733 21.116C45.6086 19.9753 46.1886 17.085 47.2133 12.445C48.2573 7.78567 48.7793 5.14667 48.7793 4.528C48.7793 3.89 48.6439 3.339 48.3733 2.875C48.1219 2.411 47.8706 2.07267 47.6193 1.86L47.2133 1.541L47.3003 1.106C47.8029 0.970666 48.8276 0.825666 50.3743 0.670999C51.9403 0.496999 53.3033 0.409999 54.4633 0.409999C57.1506 0.409999 59.1806 1.00933 60.5533 2.208C61.9453 3.38733 62.6413 5.311 62.6413 7.979C62.6413 10.1637 62.2739 12.2613 61.5393 14.272C60.8239 16.2633 59.7219 17.9453 58.2333 19.318C56.7446 20.6713 55.0336 21.348 53.1003 21.348ZM55.1593 2.237C54.6566 2.237 54.0863 2.295 53.4483 2.411C53.2549 4.46033 52.7039 7.457 51.7953 11.401C50.9059 15.3257 50.3839 17.8293 50.2293 18.912C50.6933 19.144 51.3313 19.26 52.1433 19.26C52.9553 19.26 53.7189 18.941 54.4343 18.303C55.1689 17.6457 55.7586 16.8337 56.2033 15.867C56.6479 14.9003 57.0346 13.8177 57.3633 12.619C57.9239 10.473 58.2043 8.52033 58.2043 6.761C58.2043 5.00167 57.9723 3.81267 57.5083 3.194C57.0443 2.556 56.2613 2.237 55.1593 2.237Z" fill="#00916E"/>
</svg>
