<svg width="127" height="27" viewBox="0 0 127 27" fill="none" xmlns="http://www.w3.org/2000/svg">
<path d="M7.7 1.325C10.2433 1.30167 12.7167 1.41833 15.12 1.675C15.1667 2.445 15.1783 3.33167 15.155 4.335C15.155 5.33833 15.0967 6.26 14.98 7.1C14.5367 7.00667 13.9883 6.97167 13.335 6.995C12.6817 7.01833 11.8067 7.05333 10.71 7.1H10.64H10.605C10.605 7.12333 10.5933 7.14667 10.57 7.17C10.57 7.17 10.57 7.18167 10.57 7.205C10.5467 7.32167 10.5233 7.50833 10.5 7.765C10.5 7.99833 10.5 8.38333 10.5 8.92C10.5 9.43333 10.5 10.1217 10.5 10.985C10.5233 11.825 10.5467 12.9217 10.57 14.275C10.5933 15.605 10.6167 17.215 10.64 19.105C10.6633 20.9717 10.6983 23.1767 10.745 25.72V25.755V25.79C10.325 25.86 9.85833 25.9067 9.345 25.93C8.855 25.93 8.35333 25.93 7.84 25.93C7.35 25.93 6.86 25.93 6.37 25.93C5.88 25.93 5.425 25.965 5.005 26.035C4.98167 25.9417 4.98167 25.5217 5.005 24.775C5.02833 24.0283 5.04 22.92 5.04 21.45C5.06333 19.9567 5.05167 18.055 5.005 15.745C4.98167 13.435 4.9 10.6467 4.76 7.38L4.725 7.345C4.445 7.205 4.095 7.12333 3.675 7.1C3.255 7.05333 2.835 7.03 2.415 7.03C1.995 7.00667 1.61 6.995 1.26 6.995C0.91 6.995 0.665 6.97167 0.525 6.925C0.478333 6.83167 0.431667 6.59833 0.385 6.225C0.361667 5.85167 0.338333 5.40833 0.315 4.895C0.315 4.35833 0.315 3.78667 0.315 3.18C0.315 2.57333 0.338333 1.99 0.385 1.43C0.385 1.40667 0.373333 1.395 0.35 1.395C0.35 1.395 0.35 1.38333 0.35 1.36C2.73 1.33667 5.18 1.325 7.7 1.325ZM32.2826 23.13C32.7959 24.0167 33.2276 24.9383 33.5776 25.895H33.6126C32.7959 25.895 31.8859 25.93 30.8826 26C29.8792 26.0467 28.8526 26.035 27.8026 25.965H27.7676C27.5342 25.4283 27.2426 24.7867 26.8926 24.04C26.5426 23.2933 26.1576 22.5117 25.7376 21.695C25.3176 20.8783 24.8626 20.0733 24.3726 19.28C23.8826 18.4867 23.3926 17.7867 22.9026 17.18L22.8326 17.075C22.7626 17.6117 22.7276 18.2767 22.7276 19.07C22.7276 19.84 22.7392 20.645 22.7626 21.485C22.8092 22.3017 22.8559 23.0833 22.9026 23.83C22.9492 24.5767 22.9842 25.1717 23.0076 25.615C22.6109 25.7783 22.0859 25.8833 21.4326 25.93C20.8026 25.9767 20.1726 26 19.5426 26C18.9126 26.0233 18.3409 26.0233 17.8276 26C17.3376 25.9767 17.0342 25.9767 16.9176 26C16.9642 26 16.9992 25.685 17.0226 25.055C17.0459 24.4017 17.0576 23.55 17.0576 22.5C17.0576 21.45 17.0576 20.2483 17.0576 18.895C17.0576 17.5183 17.0459 16.1067 17.0226 14.66C17.0226 13.19 16.9992 11.7433 16.9526 10.32C16.9292 8.87333 16.9059 7.555 16.8826 6.365C16.8592 5.15167 16.8242 4.125 16.7776 3.285C16.7542 2.42166 16.7192 1.83833 16.6726 1.535C17.9792 1.34833 19.4142 1.17333 20.9776 1.01C22.5409 0.846666 24.1742 0.858332 25.8776 1.045C27.2542 1.115 28.4909 1.51167 29.5876 2.235C30.6842 2.95833 31.5359 3.85667 32.1426 4.93C32.7492 6.00333 33.0642 7.19333 33.0876 8.5C33.1342 9.78333 32.7959 11.0317 32.0726 12.245C31.6292 13.085 31.0342 13.785 30.2876 14.345C29.5642 14.905 28.6426 15.22 27.5226 15.29H27.3826H27.3476V15.325C27.8376 16.1883 28.3742 17.0517 28.9576 17.915C29.5409 18.755 30.1126 19.6067 30.6726 20.47C31.2326 21.3333 31.7692 22.22 32.2826 23.13ZM24.1976 5.91C23.4042 5.93333 22.5992 6.10833 21.7826 6.435C21.8059 6.73833 21.8176 7.08833 21.8176 7.485C21.8409 7.85833 21.8526 8.24333 21.8526 8.64C21.8526 9.03667 21.8526 9.42167 21.8526 9.795C21.8759 10.1683 21.9109 10.4833 21.9576 10.74H21.9926C22.5292 10.7867 23.1126 10.8217 23.7426 10.845C24.3726 10.8683 24.9676 10.8333 25.5276 10.74C25.9709 10.6467 26.3092 10.425 26.5426 10.075C26.7992 9.70167 26.9509 9.305 26.9976 8.885C27.0442 8.44167 26.9976 8.01 26.8576 7.59C26.7176 7.14667 26.4842 6.79667 26.1576 6.54C25.6442 6.07333 24.9909 5.86333 24.1976 5.91ZM45.2178 21.205C46.7111 21.275 48.2511 21.2867 49.8378 21.24V21.31C49.8845 22.0567 49.8961 22.8383 49.8728 23.655C49.8495 24.4483 49.7445 25.195 49.5578 25.895C47.1778 25.8717 44.7511 25.9067 42.2778 26C39.8278 26.07 37.4711 26.0117 35.2078 25.825C35.2078 23.795 35.1845 21.7883 35.1378 19.805C35.0911 17.7983 35.0561 15.8033 35.0328 13.82C35.0095 11.8367 35.0095 9.85333 35.0328 7.87C35.0561 5.88667 35.1261 3.89167 35.2428 1.885C36.1528 1.83833 37.1328 1.80333 38.1828 1.78C39.2561 1.73333 40.3295 1.69833 41.4028 1.675C42.4761 1.65167 43.5145 1.62833 44.5178 1.605C45.5211 1.58167 46.4078 1.57 47.1778 1.57C47.9478 1.57 48.5661 1.58167 49.0328 1.605C49.4995 1.62833 49.7328 1.65167 49.7328 1.675C49.8495 2.49167 49.8728 3.32 49.8028 4.16C49.7561 5 49.7328 5.82833 49.7328 6.645V6.68C48.9861 6.84333 48.2278 6.94833 47.4578 6.995C46.7111 7.01833 45.9528 7.03 45.1828 7.03C44.4128 7.00667 43.6428 6.995 42.8728 6.995C42.1028 6.995 41.3328 7.03 40.5628 7.1H40.4578L40.4228 7.135C40.4461 7.81167 40.4111 8.51167 40.3178 9.235C40.2478 9.935 40.2945 10.6 40.4578 11.23L40.4928 11.265C41.1928 11.3117 41.9045 11.335 42.6278 11.335C43.3511 11.335 44.0745 11.3467 44.7978 11.37V11.405C44.9145 12.1983 44.9495 12.9917 44.9028 13.785C44.8561 14.5783 44.8445 15.4067 44.8678 16.27C44.5178 16.3633 44.1211 16.4217 43.6778 16.445C43.2345 16.445 42.8028 16.445 42.3828 16.445C41.9861 16.445 41.6245 16.4567 41.2978 16.48C40.9711 16.5033 40.7495 16.5617 40.6328 16.655C40.5161 17.3317 40.4695 18.09 40.4928 18.93C40.5395 19.77 40.5861 20.47 40.6328 21.03L40.6678 21.065C42.2078 21.065 43.7245 21.1117 45.2178 21.205ZM66.1634 26.105C66.0001 26.1517 65.7201 26.175 65.3234 26.175C64.8567 26.175 64.3201 26.14 63.7134 26.07C63.1067 26.0233 62.5701 26 62.1034 26C61.3334 24.2733 60.5634 22.605 59.7934 20.995C59.0467 19.3617 58.4051 17.7983 57.8684 16.305L57.5184 15.255C57.4251 14.9983 57.3317 14.765 57.2384 14.555C57.1684 14.3217 57.1101 14.205 57.0634 14.205C57.0401 14.205 57.0051 14.485 56.9584 15.045C56.9351 15.605 56.9117 16.3167 56.8884 17.18C56.8651 18.0433 56.8417 19 56.8184 20.05C56.8184 21.1 56.8184 22.115 56.8184 23.095C56.8184 23.6317 56.8184 24.1567 56.8184 24.67C56.8184 25.16 56.8301 25.6033 56.8534 26C56.5967 26.07 56.3401 26.1167 56.0834 26.14C55.8267 26.1633 55.5701 26.175 55.3134 26.175C54.7534 26.175 54.1817 26.14 53.5984 26.07C53.0384 26 52.4901 25.965 51.9534 25.965V23.515C51.9534 21.2983 51.9301 19.1867 51.8834 17.18C51.8601 15.1733 51.8484 13.0733 51.8484 10.88C51.8484 9.27 51.8717 7.68333 51.9184 6.12C51.9651 4.53333 52.0467 2.99333 52.1634 1.5C52.3967 1.45333 52.6417 1.41833 52.8984 1.395C53.1784 1.37167 53.4584 1.36 53.7384 1.36C53.8784 1.36 54.1117 1.37167 54.4384 1.395C54.7651 1.395 55.0917 1.41833 55.4184 1.465C55.7451 1.48833 56.0251 1.52333 56.2584 1.57C56.5151 1.61667 56.6434 1.66333 56.6434 1.71C56.8067 2.13 56.9584 2.48 57.0984 2.76C57.2384 3.04 57.3667 3.30833 57.4834 3.565C57.6234 3.82167 57.7634 4.11333 57.9034 4.44C58.0667 4.74333 58.2534 5.14 58.4634 5.63C58.5101 5.74667 58.6151 5.96833 58.7784 6.295C58.9417 6.62167 59.1284 7.00667 59.3384 7.45C59.5484 7.87 59.7701 8.325 60.0034 8.815C60.2367 9.28167 60.4467 9.71333 60.6334 10.11C60.8434 10.4833 61.0184 10.81 61.1584 11.09C61.2984 11.3467 61.3801 11.475 61.4034 11.475C61.4734 11.4283 61.5317 11.195 61.5784 10.775C61.6251 10.355 61.6484 9.94667 61.6484 9.55C61.6484 8.61667 61.6251 7.75333 61.5784 6.96C61.5551 6.14333 61.5434 5.315 61.5434 4.475C61.5434 3.985 61.5434 3.495 61.5434 3.005C61.5667 2.49167 61.5901 1.94333 61.6134 1.36C62.4067 1.22 63.2467 1.15 64.1334 1.15C64.9967 1.15 65.7667 1.22 66.4434 1.36V12.63C66.4667 13.61 66.4784 14.6017 66.4784 15.605C66.4784 16.6083 66.4784 17.6117 66.4784 18.615C66.4784 19.2917 66.4667 19.945 66.4434 20.575C66.4434 21.205 66.4434 21.8467 66.4434 22.5C66.4434 22.9667 66.4434 23.4333 66.4434 23.9C66.4667 24.3667 66.4784 24.8333 66.4784 25.3V26C66.4317 26.0233 66.3267 26.0583 66.1634 26.105ZM79.99 2.585C80.69 3.12167 81.25 3.72833 81.67 4.405C82.1834 5.19833 82.6034 6.02667 82.93 6.89C83.28 7.73 83.56 8.61667 83.77 9.55C83.8867 9.92333 83.9567 10.2967 83.98 10.67C84.0267 11.02 84.0617 11.3817 84.085 11.755C84.0384 12.8517 83.9917 13.96 83.945 15.08C83.9217 16.1767 83.805 17.2617 83.595 18.335C83.595 18.3583 83.5834 18.37 83.56 18.37C83.56 18.37 83.56 18.3817 83.56 18.405C83.0934 19.7817 82.4517 21.0883 81.635 22.325C80.8417 23.5617 80.0017 24.7283 79.115 25.825C77.575 25.8717 76.0234 25.9067 74.46 25.93C72.8967 25.93 71.38 25.93 69.91 25.93C69.91 25.93 69.8984 25.9417 69.875 25.965C69.6184 24.1217 69.455 22.22 69.385 20.26C69.315 18.2767 69.28 16.27 69.28 14.24C69.28 12.21 69.2917 10.1683 69.315 8.115C69.3617 6.03833 69.3617 3.985 69.315 1.955C69.3384 1.93167 69.35 1.90833 69.35 1.885C69.3734 1.86167 69.3967 1.83833 69.42 1.815C70.0734 1.65167 70.75 1.54667 71.45 1.5C72.1734 1.43 72.8967 1.40667 73.62 1.43C74.3434 1.43 75.055 1.44167 75.755 1.465C76.4784 1.48833 77.1784 1.48833 77.855 1.465C78.6017 1.65167 79.3134 2.025 79.99 2.585ZM77.96 17.74C78.1467 17.53 78.31 17.32 78.45 17.11C78.8467 16.5033 79.1267 15.8383 79.29 15.115C79.4767 14.3917 79.4767 13.5983 79.29 12.735C79.22 12.385 79.1384 12.0233 79.045 11.65C78.9517 11.2533 78.8117 10.88 78.625 10.53C78.4617 10.18 78.2517 9.87667 77.995 9.62C77.7384 9.34 77.4117 9.13 77.015 8.99C76.6184 8.94333 76.1867 8.92 75.72 8.92C75.2534 8.89667 74.81 8.93167 74.39 9.025H74.32H74.285V9.165C74.3317 9.795 74.355 10.4717 74.355 11.195C74.355 11.9183 74.3434 12.6767 74.32 13.47C74.2967 14.24 74.285 15.0333 74.285 15.85C74.285 16.6433 74.3084 17.4367 74.355 18.23C74.6117 18.4633 74.9617 18.5683 75.405 18.545C75.8717 18.5217 76.315 18.4867 76.735 18.44C76.8517 18.4633 76.9567 18.4517 77.05 18.405C77.1434 18.335 77.2484 18.2767 77.365 18.23C77.5984 18.09 77.7967 17.9267 77.96 17.74ZM89.3148 1.395C89.8748 1.41833 90.6798 1.41833 91.7298 1.395H92.5698V1.535C92.5698 3.54167 92.5348 5.56 92.4648 7.59C92.4181 9.62 92.3715 11.6617 92.3248 13.715C92.3015 15.745 92.3015 17.775 92.3248 19.805C92.3481 21.835 92.4181 23.8417 92.5348 25.825C92.3481 26.0117 91.9515 26.1167 91.3448 26.14C90.7615 26.1867 90.1198 26.1983 89.4198 26.175C88.7431 26.1517 88.0898 26.1167 87.4598 26.07C86.8298 26.0467 86.3981 26.07 86.1648 26.14C86.3281 24.04 86.3981 21.9283 86.3748 19.805C86.3515 17.6817 86.3048 15.5817 86.2348 13.505C86.1881 11.405 86.1531 9.34 86.1298 7.31C86.1298 5.25667 86.2348 3.25 86.4448 1.29V1.22C86.5615 1.19667 86.7831 1.20833 87.1098 1.255C87.4598 1.27833 87.7165 1.29 87.8798 1.29C88.2998 1.31333 88.7781 1.34833 89.3148 1.395ZM106.352 16.795C106.352 16.8417 106.317 16.865 106.247 16.865C105.523 16.9817 104.765 17.075 103.972 17.145C103.202 17.1917 102.467 17.2733 101.767 17.39H101.732C101.615 18.86 101.545 20.33 101.522 21.8C101.498 23.2467 101.475 24.635 101.452 25.965C100.985 26.0117 100.425 26.0467 99.7716 26.07C99.1416 26.0933 98.5116 26.105 97.8816 26.105C97.2516 26.105 96.6916 26.0933 96.2016 26.07C95.7349 26.0467 95.4549 26.0117 95.3616 25.965L95.3266 25.93C95.3266 24.53 95.3266 23.2233 95.3266 22.01C95.3266 20.7733 95.3266 19.5833 95.3266 18.44C95.3499 17.2967 95.3616 16.1533 95.3616 15.01C95.3616 13.8433 95.3616 12.6183 95.3616 11.335C95.3849 10.0517 95.3966 8.675 95.3966 7.205C95.3966 5.71167 95.3966 4.055 95.3966 2.235V2.2C95.7933 2.13 96.3649 2.06 97.1116 1.99C97.8583 1.92 98.6983 1.85 99.6316 1.78C100.588 1.71 101.592 1.66333 102.642 1.64C103.715 1.59333 104.765 1.58167 105.792 1.605C106.818 1.605 107.787 1.65167 108.697 1.745C109.607 1.83833 110.388 1.96667 111.042 2.13C111.042 2.43333 111.042 2.81833 111.042 3.285C111.065 3.75167 111.077 4.24167 111.077 4.755C111.077 5.245 111.077 5.72333 111.077 6.19C111.077 6.63333 111.065 7.00667 111.042 7.31C110.412 7.35667 109.7 7.40333 108.907 7.45C108.137 7.49667 107.332 7.54333 106.492 7.59C105.675 7.61333 104.847 7.64833 104.007 7.695C103.19 7.74167 102.42 7.8 101.697 7.87C101.44 8.47667 101.335 9.06 101.382 9.62C101.428 10.18 101.557 10.6467 101.767 11.02C101.79 11.0433 101.813 11.055 101.837 11.055C102.163 11.1017 102.525 11.1367 102.922 11.16C103.342 11.16 103.75 11.16 104.147 11.16C104.543 11.16 104.928 11.1483 105.302 11.125C105.675 11.1017 105.99 11.0783 106.247 11.055C106.317 11.2183 106.352 11.5333 106.352 12C106.375 12.4667 106.375 12.9917 106.352 13.575C106.328 14.135 106.305 14.7067 106.282 15.29C106.282 15.8733 106.305 16.375 106.352 16.795ZM126.377 1.71C126.61 1.71 126.797 1.72167 126.937 1.745V1.78C126.283 3.88 125.513 5.93333 124.627 7.94C123.74 9.94667 122.818 11.9533 121.862 13.96C120.905 15.9433 119.972 17.9383 119.062 19.945C118.152 21.9283 117.347 23.9467 116.647 26C116.507 25.9767 116.367 25.965 116.227 25.965C116.087 25.965 115.935 25.965 115.772 25.965C115.282 25.965 114.745 25.9767 114.162 26C113.578 26.0467 113.018 26.07 112.482 26.07C112.342 26.07 112.202 26.07 112.062 26.07C111.922 26.07 111.782 26.0583 111.642 26.035H111.572C112.178 24.145 112.89 22.1733 113.707 20.12C114.523 18.0433 115.34 15.9783 116.157 13.925V13.855C115.9 12.8283 115.573 11.8133 115.177 10.81C114.78 9.78333 114.36 8.76833 113.917 7.765C113.497 6.76167 113.088 5.75833 112.692 4.755C112.295 3.75167 111.98 2.76 111.747 1.78C112.213 1.78 112.703 1.745 113.217 1.675C113.73 1.605 114.243 1.57 114.757 1.57C115.037 1.57 115.317 1.59333 115.597 1.64C115.877 1.66333 116.145 1.73333 116.402 1.85C116.518 2.36333 116.682 2.97 116.892 3.67C117.125 4.37 117.358 5.08167 117.592 5.805C117.848 6.52833 118.105 7.21667 118.362 7.87C118.642 8.52333 118.887 9.07167 119.097 9.515C119.33 9.095 119.563 8.55833 119.797 7.905C120.053 7.22833 120.298 6.52833 120.532 5.805C120.788 5.08167 121.033 4.37 121.267 3.67C121.5 2.97 121.722 2.38667 121.932 1.92C122.352 1.82667 122.912 1.76833 123.612 1.745C124.335 1.69833 125 1.675 125.607 1.675C125.887 1.675 126.143 1.68667 126.377 1.71Z" fill="#00916E"/>
</svg>
