<svg width="38" height="39" viewBox="0 0 38 39" fill="none" xmlns="http://www.w3.org/2000/svg">
<path d="M18.7 8.325C21.2433 8.30167 23.7167 8.41833 26.12 8.675C26.1667 9.445 26.1783 10.3317 26.155 11.335C26.155 12.3383 26.0967 13.26 25.98 14.1C25.5367 14.0067 24.9883 13.9717 24.335 13.995C23.6817 14.0183 22.8067 14.0533 21.71 14.1H21.64H21.605C21.605 14.1233 21.5933 14.1467 21.57 14.17C21.57 14.17 21.57 14.1817 21.57 14.205C21.5467 14.3217 21.5233 14.5083 21.5 14.765C21.5 14.9983 21.5 15.3833 21.5 15.92C21.5 16.4333 21.5 17.1217 21.5 17.985C21.5233 18.825 21.5467 19.9217 21.57 21.275C21.5933 22.605 21.6167 24.215 21.64 26.105C21.6633 27.9717 21.6983 30.1767 21.745 32.72V32.755V32.79C21.325 32.86 20.8583 32.9067 20.345 32.93C19.855 32.93 19.3533 32.93 18.84 32.93C18.35 32.93 17.86 32.93 17.37 32.93C16.88 32.93 16.425 32.965 16.005 33.035C15.9817 32.9417 15.9817 32.5217 16.005 31.775C16.0283 31.0283 16.04 29.92 16.04 28.45C16.0633 26.9567 16.0517 25.055 16.005 22.745C15.9817 20.435 15.9 17.6467 15.76 14.38L15.725 14.345C15.445 14.205 15.095 14.1233 14.675 14.1C14.255 14.0533 13.835 14.03 13.415 14.03C12.995 14.0067 12.61 13.995 12.26 13.995C11.91 13.995 11.665 13.9717 11.525 13.925C11.4783 13.8317 11.4317 13.5983 11.385 13.225C11.3617 12.8517 11.3383 12.4083 11.315 11.895C11.315 11.3583 11.315 10.7867 11.315 10.18C11.315 9.57333 11.3383 8.99 11.385 8.43C11.385 8.40667 11.3733 8.395 11.35 8.395C11.35 8.395 11.35 8.38333 11.35 8.36C13.73 8.33667 16.18 8.325 18.7 8.325Z" fill="#00916E"/>
<circle cx="19" cy="20" r="18" stroke="#00916E" stroke-width="2"/>
</svg>
